<?xml version="1.0" encoding="UTF-8" standalone="no"?>
<!DOCTYPE svg PUBLIC "-//W3C//DTD SVG 1.1//EN"
 "http://www.w3.org/Graphics/SVG/1.1/DTD/svg11.dtd">
<!-- Generated by graphviz version 5.0.0 (20220707.1540)
 -->
<!-- Title: dependencies Pages: 1 -->
<svg width="2649pt" height="247pt"
 viewBox="0.00 0.00 2649.00 246.80" xmlns="http://www.w3.org/2000/svg" xmlns:xlink="http://www.w3.org/1999/xlink">
<g id="graph0" class="graph" transform="scale(1 1) rotate(0) translate(4 242.8)">
<title>dependencies</title>
<polygon fill="white" stroke="transparent" points="-4,4 -4,-242.8 2645,-242.8 2645,4 -4,4"/>
<text text-anchor="middle" x="1320.5" y="-8.2" font-family="sans-serif" font-size="14.00">dependencies</text>
<g id="clust1" class="cluster">
<title>cluster_AppModule</title>
<polygon fill="none" stroke="black" stroke-dasharray="1,5" points="8,-32.8 8,-230.8 2633,-230.8 2633,-32.8 8,-32.8"/>
</g>
<g id="clust14" class="cluster">
<title>cluster_AppModule_imports</title>
<polygon fill="none" stroke="black" points="1656,-40.8 1656,-92.8 2625,-92.8 2625,-40.8 1656,-40.8"/>
</g>
<g id="clust16" class="cluster">
<title>cluster_AppModule_bootstrap</title>
<polygon fill="none" stroke="black" points="1084,-170.8 1084,-222.8 1208,-222.8 1208,-170.8 1084,-170.8"/>
</g>
<g id="clust2" class="cluster">
<title>cluster_AppModule_declarations</title>
<polygon fill="none" stroke="black" points="16,-40.8 16,-92.8 1648,-92.8 1648,-40.8 16,-40.8"/>
</g>
<!-- AnalyticsComponent -->
<g id="node1" class="node">
<title>AnalyticsComponent</title>
<polygon fill="#ffffb3" stroke="black" points="1640.49,-84.8 1505.51,-84.8 1505.51,-48.8 1640.49,-48.8 1640.49,-84.8"/>
<text text-anchor="middle" x="1573" y="-62.6" font-family="Times,serif" font-size="14.00">AnalyticsComponent</text>
</g>
<!-- AppModule -->
<g id="node12" class="node">
<title>AppModule</title>
<polygon fill="#8dd3c7" stroke="black" points="1187.66,-149.8 1184.66,-153.8 1163.66,-153.8 1160.66,-149.8 1104.34,-149.8 1104.34,-113.8 1187.66,-113.8 1187.66,-149.8"/>
<text text-anchor="middle" x="1146" y="-127.6" font-family="Times,serif" font-size="14.00">AppModule</text>
</g>
<!-- AnalyticsComponent&#45;&gt;AppModule -->
<g id="edge1" class="edge">
<title>AnalyticsComponent&#45;&gt;AppModule</title>
<path fill="none" stroke="black" d="M1573,-85.1C1573,-103.07 1573,-127.8 1573,-127.8 1573,-127.8 1197.72,-127.8 1197.72,-127.8"/>
<polygon fill="black" stroke="black" points="1197.72,-124.3 1187.72,-127.8 1197.72,-131.3 1197.72,-124.3"/>
</g>
<!-- AppComponent -->
<g id="node2" class="node">
<title>AppComponent</title>
<polygon fill="#ffffb3" stroke="black" points="1487.94,-84.8 1382.06,-84.8 1382.06,-48.8 1487.94,-48.8 1487.94,-84.8"/>
<text text-anchor="middle" x="1435" y="-62.6" font-family="Times,serif" font-size="14.00">AppComponent</text>
</g>
<!-- AppComponent&#45;&gt;AppModule -->
<g id="edge2" class="edge">
<title>AppComponent&#45;&gt;AppModule</title>
<path fill="none" stroke="black" d="M1435,-84.83C1435,-101.2 1435,-122.8 1435,-122.8 1435,-122.8 1197.71,-122.8 1197.71,-122.8"/>
<polygon fill="black" stroke="black" points="1197.71,-119.3 1187.71,-122.8 1197.71,-126.3 1197.71,-119.3"/>
</g>
<!-- ArchiveComponent -->
<g id="node3" class="node">
<title>ArchiveComponent</title>
<polygon fill="#ffffb3" stroke="black" points="1364.42,-84.8 1237.58,-84.8 1237.58,-48.8 1364.42,-48.8 1364.42,-84.8"/>
<text text-anchor="middle" x="1301" y="-62.6" font-family="Times,serif" font-size="14.00">ArchiveComponent</text>
</g>
<!-- ArchiveComponent&#45;&gt;AppModule -->
<g id="edge3" class="edge">
<title>ArchiveComponent&#45;&gt;AppModule</title>
<path fill="none" stroke="black" d="M1301,-84.99C1301,-99.98 1301,-118.8 1301,-118.8 1301,-118.8 1197.95,-118.8 1197.95,-118.8"/>
<polygon fill="black" stroke="black" points="1197.95,-115.3 1187.95,-118.8 1197.95,-122.3 1197.95,-115.3"/>
</g>
<!-- ArchiveListComponent -->
<g id="node4" class="node">
<title>ArchiveListComponent</title>
<polygon fill="#ffffb3" stroke="black" points="1220.2,-84.8 1071.8,-84.8 1071.8,-48.8 1220.2,-48.8 1220.2,-84.8"/>
<text text-anchor="middle" x="1146" y="-62.6" font-family="Times,serif" font-size="14.00">ArchiveListComponent</text>
</g>
<!-- ArchiveListComponent&#45;&gt;AppModule -->
<g id="edge4" class="edge">
<title>ArchiveListComponent&#45;&gt;AppModule</title>
<path fill="none" stroke="black" d="M1146,-84.91C1146,-84.91 1146,-103.79 1146,-103.79"/>
<polygon fill="black" stroke="black" points="1142.5,-103.79 1146,-113.79 1149.5,-103.79 1142.5,-103.79"/>
</g>
<!-- PromptComponent -->
<g id="node5" class="node">
<title>PromptComponent</title>
<polygon fill="#ffffb3" stroke="black" points="1054.06,-84.8 931.94,-84.8 931.94,-48.8 1054.06,-48.8 1054.06,-84.8"/>
<text text-anchor="middle" x="993" y="-62.6" font-family="Times,serif" font-size="14.00">PromptComponent</text>
</g>
<!-- PromptComponent&#45;&gt;AppModule -->
<g id="edge5" class="edge">
<title>PromptComponent&#45;&gt;AppModule</title>
<path fill="none" stroke="black" d="M993,-84.99C993,-99.98 993,-118.8 993,-118.8 993,-118.8 1094.19,-118.8 1094.19,-118.8"/>
<polygon fill="black" stroke="black" points="1094.19,-122.3 1104.19,-118.8 1094.19,-115.3 1094.19,-122.3"/>
</g>
<!-- SigninComponent -->
<g id="node6" class="node">
<title>SigninComponent</title>
<polygon fill="#ffffb3" stroke="black" points="913.9,-84.8 796.1,-84.8 796.1,-48.8 913.9,-48.8 913.9,-84.8"/>
<text text-anchor="middle" x="855" y="-62.6" font-family="Times,serif" font-size="14.00">SigninComponent</text>
</g>
<!-- SigninComponent&#45;&gt;AppModule -->
<g id="edge6" class="edge">
<title>SigninComponent&#45;&gt;AppModule</title>
<path fill="none" stroke="black" d="M855,-84.83C855,-101.2 855,-122.8 855,-122.8 855,-122.8 1094.31,-122.8 1094.31,-122.8"/>
<polygon fill="black" stroke="black" points="1094.31,-126.3 1104.31,-122.8 1094.31,-119.3 1094.31,-126.3"/>
</g>
<!-- SignupComponent -->
<g id="node7" class="node">
<title>SignupComponent</title>
<polygon fill="#ffffb3" stroke="black" points="778.51,-84.8 657.49,-84.8 657.49,-48.8 778.51,-48.8 778.51,-84.8"/>
<text text-anchor="middle" x="718" y="-62.6" font-family="Times,serif" font-size="14.00">SignupComponent</text>
</g>
<!-- SignupComponent&#45;&gt;AppModule -->
<g id="edge7" class="edge">
<title>SignupComponent&#45;&gt;AppModule</title>
<path fill="none" stroke="black" d="M718,-85.1C718,-103.07 718,-127.8 718,-127.8 718,-127.8 1094.18,-127.8 1094.18,-127.8"/>
<polygon fill="black" stroke="black" points="1094.18,-131.3 1104.18,-127.8 1094.18,-124.3 1094.18,-131.3"/>
</g>
<!-- StartStopSessionComponent -->
<g id="node8" class="node">
<title>StartStopSessionComponent</title>
<polygon fill="#ffffb3" stroke="black" points="639.23,-84.8 462.77,-84.8 462.77,-48.8 639.23,-48.8 639.23,-84.8"/>
<text text-anchor="middle" x="551" y="-62.6" font-family="Times,serif" font-size="14.00">StartStopSessionComponent</text>
</g>
<!-- StartStopSessionComponent&#45;&gt;AppModule -->
<g id="edge8" class="edge">
<title>StartStopSessionComponent&#45;&gt;AppModule</title>
<path fill="none" stroke="black" d="M551,-84.91C551,-104.14 551,-131.8 551,-131.8 551,-131.8 1094.16,-131.8 1094.16,-131.8"/>
<polygon fill="black" stroke="black" points="1094.16,-135.3 1104.16,-131.8 1094.16,-128.3 1094.16,-135.3"/>
</g>
<!-- TodoComponent -->
<g id="node9" class="node">
<title>TodoComponent</title>
<polygon fill="#ffffb3" stroke="black" points="444.38,-84.8 333.62,-84.8 333.62,-48.8 444.38,-48.8 444.38,-84.8"/>
<text text-anchor="middle" x="389" y="-62.6" font-family="Times,serif" font-size="14.00">TodoComponent</text>
</g>
<!-- TodoComponent&#45;&gt;AppModule -->
<g id="edge9" class="edge">
<title>TodoComponent&#45;&gt;AppModule</title>
<path fill="none" stroke="black" d="M389,-84.83C389,-105.57 389,-136.8 389,-136.8 389,-136.8 1094.22,-136.8 1094.22,-136.8"/>
<polygon fill="black" stroke="black" points="1094.22,-140.3 1104.22,-136.8 1094.22,-133.3 1094.22,-140.3"/>
</g>
<!-- TodoFormComponent -->
<g id="node10" class="node">
<title>TodoFormComponent</title>
<polygon fill="#ffffb3" stroke="black" points="315.72,-84.8 174.28,-84.8 174.28,-48.8 315.72,-48.8 315.72,-84.8"/>
<text text-anchor="middle" x="245" y="-62.6" font-family="Times,serif" font-size="14.00">TodoFormComponent</text>
</g>
<!-- TodoFormComponent&#45;&gt;AppModule -->
<g id="edge10" class="edge">
<title>TodoFormComponent&#45;&gt;AppModule</title>
<path fill="none" stroke="black" d="M245,-85.09C245,-107.01 245,-140.8 245,-140.8 245,-140.8 1094.05,-140.8 1094.05,-140.8"/>
<polygon fill="black" stroke="black" points="1094.05,-144.3 1104.05,-140.8 1094.05,-137.3 1094.05,-144.3"/>
</g>
<!-- TodoListComponent -->
<g id="node11" class="node">
<title>TodoListComponent</title>
<polygon fill="#ffffb3" stroke="black" points="156.16,-84.8 23.84,-84.8 23.84,-48.8 156.16,-48.8 156.16,-84.8"/>
<text text-anchor="middle" x="90" y="-62.6" font-family="Times,serif" font-size="14.00">TodoListComponent</text>
</g>
<!-- TodoListComponent&#45;&gt;AppModule -->
<g id="edge11" class="edge">
<title>TodoListComponent&#45;&gt;AppModule</title>
<path fill="none" stroke="black" d="M90,-85.12C90,-108.46 90,-145.8 90,-145.8 90,-145.8 1094.28,-145.8 1094.28,-145.8"/>
<polygon fill="black" stroke="black" points="1094.28,-149.3 1104.28,-145.8 1094.28,-142.3 1094.28,-149.3"/>
</g>
<!-- AppComponent  -->
<g id="node17" class="node">
<title>AppComponent </title>
<polygon fill="#80b1d3" stroke="black" points="1200.44,-214.8 1091.56,-214.8 1091.56,-178.8 1200.44,-178.8 1200.44,-214.8"/>
<text text-anchor="middle" x="1146" y="-192.6" font-family="Times,serif" font-size="14.00">AppComponent </text>
</g>
<!-- AppModule&#45;&gt;AppComponent  -->
<g id="edge16" class="edge">
<title>AppModule&#45;&gt;AppComponent </title>
<path fill="none" stroke="black" stroke-dasharray="1,5" d="M1146,-149.91C1146,-149.91 1146,-168.79 1146,-168.79"/>
<polygon fill="black" stroke="black" points="1142.5,-168.79 1146,-178.79 1149.5,-168.79 1142.5,-168.79"/>
</g>
<!-- AppRoutingModule -->
<g id="node13" class="node">
<title>AppRoutingModule</title>
<polygon fill="#8dd3c7" stroke="black" points="2617.28,-84.8 2614.28,-88.8 2593.28,-88.8 2590.28,-84.8 2488.72,-84.8 2488.72,-48.8 2617.28,-48.8 2617.28,-84.8"/>
<text text-anchor="middle" x="2553" y="-62.6" font-family="Times,serif" font-size="14.00">AppRoutingModule</text>
</g>
<!-- AppRoutingModule&#45;&gt;AppModule -->
<g id="edge12" class="edge">
<title>AppRoutingModule&#45;&gt;AppModule</title>
<path fill="none" stroke="black" d="M2553,-85.12C2553,-108.46 2553,-145.8 2553,-145.8 2553,-145.8 1197.73,-145.8 1197.73,-145.8"/>
<polygon fill="black" stroke="black" points="1197.73,-142.3 1187.73,-145.8 1197.73,-149.3 1197.73,-142.3"/>
</g>
<!-- provideDatabase(() =&gt; getDatabase()) -->
<g id="node14" class="node">
<title>provideDatabase(() =&gt; getDatabase())</title>
<polygon fill="#8dd3c7" stroke="black" points="2470.74,-84.8 2467.74,-88.8 2446.74,-88.8 2443.74,-84.8 2241.26,-84.8 2241.26,-48.8 2470.74,-48.8 2470.74,-84.8"/>
<text text-anchor="middle" x="2356" y="-62.6" font-family="Times,serif" font-size="14.00">provideDatabase(() =&gt; getDatabase())</text>
</g>
<!-- provideDatabase(() =&gt; getDatabase())&#45;&gt;AppModule -->
<g id="edge13" class="edge">
<title>provideDatabase(() =&gt; getDatabase())&#45;&gt;AppModule</title>
<path fill="none" stroke="black" d="M2356,-85.09C2356,-107.01 2356,-140.8 2356,-140.8 2356,-140.8 1198,-140.8 1198,-140.8"/>
<polygon fill="black" stroke="black" points="1198,-137.3 1188,-140.8 1198,-144.3 1198,-137.3"/>
</g>
<!-- provideFirebaseApp(() =&gt; initializeApp(environment -->
<g id="node15" class="node">
<title>provideFirebaseApp(() =&gt; initializeApp(environment</title>
<polygon fill="#8dd3c7" stroke="black" points="2223.59,-84.8 2220.59,-88.8 2199.59,-88.8 2196.59,-84.8 1908.41,-84.8 1908.41,-48.8 2223.59,-48.8 2223.59,-84.8"/>
<text text-anchor="middle" x="2066" y="-62.6" font-family="Times,serif" font-size="14.00">provideFirebaseApp(() =&gt; initializeApp(environment</text>
</g>
<!-- provideFirebaseApp(() =&gt; initializeApp(environment&#45;&gt;AppModule -->
<g id="edge14" class="edge">
<title>provideFirebaseApp(() =&gt; initializeApp(environment&#45;&gt;AppModule</title>
<path fill="none" stroke="black" d="M2066,-84.83C2066,-105.57 2066,-136.8 2066,-136.8 2066,-136.8 1197.92,-136.8 1197.92,-136.8"/>
<polygon fill="black" stroke="black" points="1197.92,-133.3 1187.92,-136.8 1197.92,-140.3 1197.92,-133.3"/>
</g>
<!-- provideFirestore(() =&gt; getFirestore()) -->
<g id="node16" class="node">
<title>provideFirestore(() =&gt; getFirestore())</title>
<polygon fill="#8dd3c7" stroke="black" points="1890.16,-84.8 1887.16,-88.8 1866.16,-88.8 1863.16,-84.8 1663.84,-84.8 1663.84,-48.8 1890.16,-48.8 1890.16,-84.8"/>
<text text-anchor="middle" x="1777" y="-62.6" font-family="Times,serif" font-size="14.00">provideFirestore(() =&gt; getFirestore())</text>
</g>
<!-- provideFirestore(() =&gt; getFirestore())&#45;&gt;AppModule -->
<g id="edge15" class="edge">
<title>provideFirestore(() =&gt; getFirestore())&#45;&gt;AppModule</title>
<path fill="none" stroke="black" d="M1777,-84.91C1777,-104.14 1777,-131.8 1777,-131.8 1777,-131.8 1197.89,-131.8 1197.89,-131.8"/>
<polygon fill="black" stroke="black" points="1197.89,-128.3 1187.89,-131.8 1197.89,-135.3 1197.89,-128.3"/>
</g>
</g>
</svg>
